<?xml version="1.0" encoding="utf-8"?>
<!-- Generator: Adobe Illustrator 16.0.0, SVG Export Plug-In . SVG Version: 6.00 Build 0)  -->
<!DOCTYPE svg PUBLIC "-//W3C//DTD SVG 1.1//EN" "http://www.w3.org/Graphics/SVG/1.1/DTD/svg11.dtd">
<svg version="1.1" id="Relational" xmlns="http://www.w3.org/2000/svg" xmlns:xlink="http://www.w3.org/1999/xlink" x="0px" y="0px"
	 width="595.28px" height="1133.858px" viewBox="0 0 595.28 1133.858" enable-background="new 0 0 595.28 1133.858"
	 xml:space="preserve">
<g>
	<polyline fill="none" stroke="#666666" stroke-width="3" stroke-linecap="square" stroke-miterlimit="10" points="277.072,121.612 
		195.954,168.445 195.954,222.942 	"/>
	<g>
		<polygon fill="#FFFFFF" stroke="#666666" stroke-width="3" stroke-linecap="square" stroke-miterlimit="10" points="
			161.432,237.316 195.949,217.389 230.465,237.316 230.465,277.174 195.949,297.102 161.432,277.174 		"/>
		<text transform="matrix(1 0 0 1 171.4902 254.4316)"><tspan x="0" y="0" fill="#666666" font-family="'OpenSans-Semibold'" font-size="9">NESTED OR</tspan><tspan x="-6.167" y="10.8" fill="#666666" font-family="'OpenSans-Semibold'" font-size="9">HIERARCHICAL</tspan></text>
	</g>
</g>
<g>
	<polygon fill="#666666" points="277.062,61.856 328.811,31.979 380.561,61.856 380.561,121.612 328.811,151.489 277.062,121.612 	
		"/>
	<text transform="matrix(1 0 0 1 296.1699 81.8779)"><tspan x="0" y="0" fill="#FFFFFF" font-family="'OpenSans-Semibold'" font-size="10.8">RELATIONAL</tspan><tspan x="-4.749" y="12.96" fill="#FFFFFF" font-family="'OpenSans-Semibold'" font-size="10.8">DATA / GRAPH</tspan><tspan x="2.207" y="25.92" fill="#FFFFFF" font-family="'OpenSans-Semibold'" font-size="10.8">STRUCTURE</tspan></text>
</g>
<g>
	<polyline fill="none" stroke="#666666" stroke-width="3" stroke-linecap="square" stroke-miterlimit="10" points="380.561,121.612 
		461.679,168.445 461.679,222.942 	"/>
	<polyline fill="none" stroke="#666666" stroke-width="3" stroke-linecap="square" stroke-miterlimit="10" points="528.113,893.26 
		528.113,295.6 496.199,277.174 	"/>
	<path fill="#666666" d="M560.704,893.26c0,18.006-14.598,32.6-32.598,32.6c-18.002,0-32.6-14.594-32.6-32.6
		c0-18,14.598-32.598,32.6-32.598C546.106,860.662,560.704,875.26,560.704,893.26z"/>
	<path fill="#666666" d="M560.704,805.25c0,18.006-14.598,32.6-32.598,32.6c-18.002,0-32.6-14.594-32.6-32.6
		c0-18,14.598-32.598,32.6-32.598C546.106,772.652,560.704,787.25,560.704,805.25z"/>
	<path fill="#666666" d="M560.704,717.242c0,18.006-14.598,32.6-32.598,32.6c-18.002,0-32.6-14.594-32.6-32.6
		c0-18,14.598-32.598,32.6-32.598C546.106,684.645,560.704,699.242,560.704,717.242z"/>
	<path fill="#666666" d="M560.704,629.235c0,18.006-14.598,32.6-32.598,32.6c-18.002,0-32.6-14.594-32.6-32.6
		c0-18,14.598-32.598,32.6-32.598C546.106,596.638,560.704,611.235,560.704,629.235z"/>
	<path fill="#666666" d="M560.704,541.227c0,18.006-14.598,32.6-32.598,32.6c-18.002,0-32.6-14.594-32.6-32.6
		c0-18,14.598-32.598,32.6-32.598C546.106,508.629,560.704,523.227,560.704,541.227z"/>
	<g>
		<text transform="matrix(1 0 0 1 448.418 895.8975)" font-family="'OpenSans'" font-size="9">HEATMAP</text>
		<text transform="matrix(1 0 0 1 458.5254 719.8818)"><tspan x="0" y="0" font-family="'OpenSans'" font-size="9">CHORD</tspan><tspan x="9.373" y="10.8" font-family="'OpenSans'" font-size="9">PLOT</tspan></text>
		<text transform="matrix(1 0 0 1 473.041 807.8896)"><tspan x="0" y="0" font-family="'OpenSans'" font-size="9">ARC</tspan><tspan x="-23.766" y="10.8" font-family="'OpenSans'" font-size="9">DIAGRAM</tspan></text>
		<text transform="matrix(1 0 0 1 470.4648 543.8643)"><tspan x="0" y="0" font-family="'OpenSans'" font-size="9">HIVE</tspan><tspan x="-2.566" y="10.8" font-family="'OpenSans'" font-size="9">PLOT</tspan></text>
		<text transform="matrix(1 0 0 1 446.7773 631.873)" font-family="'OpenSans'" font-size="9">NETWORK</text>
	</g>
	<g>
		<polygon fill="#FFFFFF" stroke="#666666" stroke-width="3" stroke-linecap="square" stroke-miterlimit="10" points="
			427.157,237.316 461.675,217.389 496.19,237.316 496.19,277.174 461.675,297.102 427.157,277.174 		"/>
		<text transform="matrix(1 0 0 1 439.542 259.832)" fill="#666666" font-family="'OpenSans-Semibold'" font-size="9">NETWORK</text>
	</g>
	
		<image overflow="visible" width="472" height="472" xlink:href="links/ArcBig.png"  transform="matrix(0.1201 0 0 0.1201 499.7588 776.9062)">
	</image>
	
		<image overflow="visible" width="472" height="472" xlink:href="links/ChordBig.png"  transform="matrix(0.1201 0 0 0.1201 499.7588 688.8975)">
	</image>
	
		<image overflow="visible" width="472" height="472" xlink:href="links/HeatmapBig.png"  transform="matrix(0.1201 0 0 0.1201 499.7588 864.9141)">
	</image>
	
		<image overflow="visible" width="472" height="472" xlink:href="links/HiveBig.png"  transform="matrix(0.1201 0 0 0.1201 499.7588 512.8809)">
	</image>
	
		<image overflow="visible" width="472" height="472" xlink:href="links/NetworkBig.png"  transform="matrix(0.1201 0 0 0.1201 499.7588 600.8896)">
	</image>
</g>
<g>
	<polyline fill="none" stroke="#666666" stroke-width="3" stroke-linecap="square" stroke-miterlimit="10" points="395.247,595.508 
		395.247,295.601 294.404,237.312 230.469,237.312 	"/>
	<circle fill="#666666" cx="395.243" cy="629.237" r="32.599"/>
	<path fill="#666666" d="M427.842,541.227c0,18.006-14.598,32.6-32.598,32.6c-18.002,0-32.6-14.594-32.6-32.6
		c0-18,14.598-32.598,32.6-32.598C413.244,508.629,427.842,523.227,427.842,541.227z"/>
	<g>
		<text transform="matrix(1 0 0 1 333.9912 631.874)"><tspan x="0" y="0" font-family="'OpenSans'" font-size="9">EDGE</tspan><tspan x="-12.282" y="10.8" font-family="'OpenSans'" font-size="9">BUNDLE</tspan><tspan x="1.046" y="21.6" font-family="'OpenSans'" font-size="9">PLOT</tspan></text>
		<text transform="matrix(1 0 0 1 324.125 543.8652)"><tspan x="0" y="0" font-family="'OpenSans'" font-size="9">SANKEY</tspan><tspan x="-7.712" y="10.8" font-family="'OpenSans'" font-size="9">DIAGRAM</tspan></text>
	</g>
	<g>
		<polygon fill="#FFFFFF" stroke="#666666" stroke-width="3" stroke-linecap="square" stroke-miterlimit="10" points="
			360.726,382.937 395.243,363.009 429.759,382.937 429.759,422.794 395.243,442.722 360.726,422.794 		"/>
		<text transform="matrix(1 0 0 1 381.1777 400.0527)"><tspan x="0" y="0" fill="#666666" font-family="'OpenSans-Semibold'" font-size="9">VALUE</tspan><tspan x="-8.604" y="10.8" fill="#666666" font-family="'OpenSans-Semibold'" font-size="9">FOR LINKS</tspan></text>
	</g>
	
		<image overflow="visible" width="472" height="472" xlink:href="links/BundleBig.png"  transform="matrix(0.1201 0 0 0.1201 366.8955 600.8896)">
	</image>
	
		<image overflow="visible" width="472" height="472" xlink:href="links/SankeyBig.png"  transform="matrix(0.1201 0 0 0.1201 366.8955 512.8809)">
	</image>
</g>
<g>
	<polyline fill="none" stroke="#666666" stroke-width="3" stroke-linecap="square" stroke-miterlimit="10" points="230.465,277.174 
		262.379,295.6 262.379,717.244 	"/>
	<path fill="#666666" d="M294.979,717.243c0,18.008-14.596,32.598-32.598,32.598c-18.004,0-32.6-14.59-32.6-32.598
		c0-18,14.596-32.598,32.6-32.598C280.383,684.646,294.979,699.243,294.979,717.243z"/>
	<path fill="#666666" d="M294.979,629.236c0,18.008-14.596,32.598-32.598,32.598c-18.004,0-32.6-14.59-32.6-32.598
		c0-18,14.596-32.598,32.6-32.598C280.383,596.639,294.979,611.236,294.979,629.236z"/>
	<path fill="#666666" d="M294.979,541.228c0,18.008-14.596,32.598-32.598,32.598c-18.004,0-32.6-14.59-32.6-32.598
		c0-18,14.596-32.598,32.6-32.598C280.383,508.63,294.979,523.228,294.979,541.228z"/>
	<g>
		<text transform="matrix(1 0 0 1 182.1221 543.8652)"><tspan x="0" y="0" font-family="'OpenSans'" font-size="9">TREE MAP</tspan><tspan x="8.407" y="10.8" font-family="'OpenSans'" font-size="9">BUBBLE</tspan></text>
		<text transform="matrix(1 0 0 1 178.1099 631.874)"><tspan x="0" y="0" font-family="'OpenSans'" font-size="9">SUNBURST</tspan><tspan x="24.064" y="10.8" font-family="'OpenSans'" font-size="9">PLOT</tspan></text>
		<text transform="matrix(1 0 0 1 203.6992 719.8828)"><tspan x="0" y="0" font-family="'OpenSans'" font-size="9">TREE</tspan><tspan x="-1.525" y="10.8" font-family="'OpenSans'" font-size="9">PLOT</tspan></text>
	</g>
	<g>
		<polygon fill="#FFFFFF" stroke="#666666" stroke-width="3" stroke-linecap="square" stroke-miterlimit="10" points="
			227.864,382.937 262.382,363.009 296.897,382.937 296.897,422.794 262.382,442.722 227.864,422.794 		"/>
		<text transform="matrix(1 0 0 1 248.3164 400.0527)"><tspan x="0" y="0" fill="#666666" font-family="'OpenSans-Semibold'" font-size="9">VALUE</tspan><tspan x="-6.238" y="10.8" fill="#666666" font-family="'OpenSans-Semibold'" font-size="9">FOR LEAF</tspan></text>
	</g>
	
		<image overflow="visible" width="472" height="472" xlink:href="links/CircularPackingBig.png"  transform="matrix(0.1201 0 0 0.1201 234.0337 512.8809)">
	</image>
	
		<image overflow="visible" width="472" height="472" xlink:href="links/SunburstBig.png"  transform="matrix(0.1201 0 0 0.1201 234.0337 600.8896)">
	</image>
	
		<image overflow="visible" width="472" height="472" xlink:href="links/TreeBig.png"  transform="matrix(0.1201 0 0 0.1201 234.0337 688.8965)">
	</image>
</g>
<g>
	<polyline fill="none" stroke="#666666" stroke-width="3" stroke-linecap="square" stroke-miterlimit="10" points="161.441,277.174 
		129.527,295.6 129.527,721.969 	"/>
	<path fill="#666666" d="M162.116,717.244c0,18.006-14.598,32.598-32.598,32.598c-18.002,0-32.6-14.592-32.6-32.598
		c0-18.002,14.598-32.6,32.6-32.6C147.519,684.645,162.116,699.242,162.116,717.244z"/>
	<path fill="#666666" d="M162.116,541.229c0,18.006-14.598,32.598-32.598,32.598c-18.002,0-32.6-14.592-32.6-32.598
		c0-18.002,14.598-32.6,32.6-32.6C147.519,508.629,162.116,523.227,162.116,541.229z"/>
	<path fill="#666666" d="M162.116,629.237c0,18.006-14.598,32.598-32.598,32.598c-18.002,0-32.6-14.592-32.6-32.598
		c0-18.002,14.598-32.6,32.6-32.6C147.519,596.638,162.116,611.235,162.116,629.237z"/>
	<g>
		<text transform="matrix(1 0 0 1 70.8364 631.873)"><tspan x="0" y="0" font-family="'OpenSans'" font-size="9">TREE</tspan><tspan x="-1.525" y="10.8" font-family="'OpenSans'" font-size="9">PLOT</tspan></text>
		<text transform="matrix(1 0 0 1 27.9673 719.8828)" font-family="'OpenSans'" font-size="9">DENDROGRAM</text>
		<text transform="matrix(1 0 0 1 26.0957 543.8652)"><tspan x="0" y="0" font-family="'OpenSans'" font-size="9">PHYLOGENETIC</tspan><tspan x="44.741" y="10.8" font-family="'OpenSans'" font-size="9">TREE</tspan></text>
	</g>
	<g>
		<polygon fill="#FFFFFF" stroke="#666666" stroke-width="3" stroke-linecap="square" stroke-miterlimit="10" points="
			95.001,382.937 129.519,363.009 164.034,382.937 164.034,422.794 129.519,442.722 95.001,422.794 		"/>
		<text transform="matrix(1 0 0 1 122.4512 400.0527)"><tspan x="0" y="0" fill="#666666" font-family="'OpenSans-Semibold'" font-size="9">NO</tspan><tspan x="-6.998" y="10.8" fill="#666666" font-family="'OpenSans-Semibold'" font-size="9">VALUE</tspan></text>
	</g>
	
		<image overflow="visible" width="472" height="472" xlink:href="links/CircularPackingBig.png"  transform="matrix(0.1201 0 0 0.1201 101.1714 512.8809)">
	</image>
	
		<image overflow="visible" width="472" height="472" xlink:href="links/DendrogramBig.png"  transform="matrix(0.1201 0 0 0.1201 101.1714 688.8965)">
	</image>
	
		<image overflow="visible" width="472" height="472" xlink:href="links/TreeBig.png"  transform="matrix(0.1201 0 0 0.1201 101.1714 600.8896)">
	</image>
</g>
</svg>
