<?xml version="1.0" encoding="utf-8"?>
<!-- Generator: Adobe Illustrator 22.1.0, SVG Export Plug-In . SVG Version: 6.00 Build 0)  -->
<svg version="1.1" id="Layer_1_copy_2" xmlns="http://www.w3.org/2000/svg" xmlns:xlink="http://www.w3.org/1999/xlink" x="0px"
	 y="0px" viewBox="0 0 1280 1024" style="enable-background:new 0 0 1280 1024;" xml:space="preserve">
<style type="text/css">
	.st0{fill:#807F7F;}
	.st1{fill:#404080;}
	.st2{fill:#65B7B9;}
</style>
<path class="st0" d="M226.3,512c0-14.8-12-26.8-26.8-26.8c-14.8,0-26.8,12-26.8,26.8v36.2h-15.2l-4.1,9.9l21,21l9.9-4.1v-15.2h15.2
	v-11.6h-15.2V512c0-8.4,6.8-15.2,15.2-15.2c8.4,0,15.2,6.8,15.2,15.2H226.3z"/>
<path class="st0" d="M213.5,533v42h11.6v-21c0-8.4,6.8-15.2,15.2-15.2v-11.6c-6.3,0-12.1,2.2-16.6,5.8H213.5z"/>
<path class="st0" d="M269,527.2c-14.8,0-26.8,12-26.8,26.8c0,14.8,12,26.8,26.8,26.8c14.8,0,26.8-12,26.8-26.8
	C295.8,539.2,283.7,527.2,269,527.2z M269,569.2c-8.4,0-15.2-6.8-15.2-15.2c0-8.4,6.8-15.2,15.2-15.2c8.4,0,15.2,6.8,15.2,15.2
	C284.2,562.4,277.3,569.2,269,569.2z"/>
<path class="st0" d="M369.6,527.2c-8.5,0-16.1,4-21,10.2c-4.9-6.2-12.5-10.2-21-10.2c-6.3,0-12.1,2.2-16.6,5.8h-10.2v42h11.6v-21
	c0-8.4,6.8-15.2,15.2-15.2s15.2,6.8,15.2,15.2v21h11.6v-21c0-8.4,6.8-15.2,15.2-15.2c8.4,0,15.2,6.8,15.2,15.2v21h11.6v-21
	C396.4,539.2,384.3,527.2,369.6,527.2z"/>
<path class="st1" d="M450.3,443.2l-5.8,5.8V575l5.8,5.8c38,0,68.8-30.9,68.8-68.8C519.2,474,488.3,443.2,450.3,443.2z M456.1,568.9
	V455.1c28.8,2.9,51.4,27.3,51.4,56.9C507.6,541.6,485,566,456.1,568.9z"/>
<path class="st1" d="M573.3,554v-21h-10.2c-4.6-3.6-10.4-5.8-16.6-5.8c-14.8,0-26.8,12-26.8,26.8c0,14.8,12,26.8,26.8,26.8
	c8.5,0,16.1-4,21-10.2c4.9,6.2,12.5,10.2,21,10.2v-11.6C580.1,569.2,573.3,562.4,573.3,554z M546.5,569.2c-8.4,0-15.2-6.8-15.2-15.2
	c0-8.4,6.8-15.2,15.2-15.2c8.4,0,15.2,6.8,15.2,15.2C561.7,562.4,554.9,569.2,546.5,569.2z"/>
<path class="st1" d="M617.2,569.2c-8.4,0-15.2-6.8-15.2-15.2l0-36.2h15.2v-11.6H602l0-15.2l-11.6,0l0,15.2h-15.2v11.6h15.2l0,36.2
	c0,14.8,12,26.8,26.8,26.8c14.8,0,26.8-12,26.8-26.8h-11.6C632.4,562.4,625.6,569.2,617.2,569.2z"/>
<path class="st1" d="M702.6,554v-21h-10.2c-4.6-3.6-10.4-5.8-16.6-5.8c-14.8,0-26.8,12-26.8,26.8s12,26.8,26.8,26.8
	c8.5,0,16.1-4,21-10.2c4.9,6.2,12.5,10.2,21,10.2v-11.6C709.4,569.2,702.6,562.4,702.6,554z M675.8,569.2c-8.4,0-15.2-6.8-15.2-15.2
	s6.8-15.2,15.2-15.2c8.4,0,15.2,6.8,15.2,15.2S684.1,569.2,675.8,569.2z"/>
<path class="st0" d="M819.6,569.2c-8.4,0-15.2-6.8-15.2-15.2l0-36.2h15.2v-11.6h-15.2l0-15.2l-11.6,0l0,15.2h-15.2v11.6h15.2l0,36.2
	c0,14.8,12,26.8,26.8,26.8c14.8,0,26.8-12,26.8-26.8h-11.6C834.8,562.4,827.9,569.2,819.6,569.2z"/>
<path class="st0" d="M873.7,527.2c-14.8,0-26.8,12-26.8,26.8c0,14.8,12,26.8,26.8,26.8c14.8,0,26.8-12,26.8-26.8
	C900.5,539.2,888.5,527.2,873.7,527.2z M873.7,569.2c-8.4,0-15.2-6.8-15.2-15.2c0-8.4,6.8-15.2,15.2-15.2c8.4,0,15.2,6.8,15.2,15.2
	C888.9,562.4,882.1,569.2,873.7,569.2z"/>
<polygon class="st2" points="1033,447.1 996.5,556.7 960,447.1 949,450.8 991,576.9 1002,576.9 1044,450.8 "/>
<path class="st2" d="M1053.2,554v-21h-11.6v21c0,14.8,12,26.8,26.8,26.8v-11.6C1060,569.2,1053.2,562.4,1053.2,554z"/>
<rect x="1041.6" y="491" class="st2" width="11.6" height="21"/>
<polygon class="st2" points="1126.6,537.1 1122.5,527.2 1080.5,527.2 1080.5,538.8 1108.5,538.8 1076.4,570.9 1080.5,580.8 
	1122.5,580.8 1122.5,569.2 1094.5,569.2 "/>
</svg>
